<svg xmlns="http://www.w3.org/2000/svg" width="200" height="200"><g fill="#F2AF36" fill-rule="evenodd"><path d="M92.044 107.949v-5.681l9.27.002V80.294H60.801v21.976h9.267v5.679h21.976"/><path d="M51.685 111.391v-40.22h50.29c1.64 0 2.255.192 2.99.928l4.526 4.528c.758.756.931 1.315.931 2.993v23.323c0 1.678-.174 2.238-.936 2.998l-4.517 4.52c-.696.696-1.295.904-2.73.927l-50.554.003Zm50.29-88.41c1.639 0 2.255.192 2.99.928l4.526 4.527c.758.757.931 1.316.931 2.994v9.32c0 1.677-.174 2.238-.936 2.997l-4.517 4.52c-.74.74-1.355.93-2.994.93h-50.29V27.943l-10.987-4.96h61.277Zm79.87 79.287V80.294h-40.512v21.976h9.268v64.076c0 1.637-.19 2.253-.927 2.99l-4.527 4.524c-.756.759-1.315.933-2.994.933h-41.66c-1.676 0-2.236-.174-2.998-.936l-4.518-4.517c-.74-.741-.933-1.357-.933-2.994v-32.978h9.931c6.72 0 11.16 0 16.419-5.253l8.74-8.74c5.267-5.26 5.266-9.608 5.266-16.191V79.373c0-6.58.001-10.925-5.248-16.164l-3.022-3.024 3.003-3.006c5.268-5.258 5.267-9.606 5.267-16.19v-9.806c0-6.58.001-10.926-5.248-16.166l-8.774-8.776c-5.243-5.236-9.682-5.236-16.403-5.236H19.117V22.98H29.71v88.41H19.117v21.977H70.07v32.978c0 6.72 0 11.158 5.253 16.418l8.742 8.74c5.256 5.265 9.513 5.265 15.953 5.265h42.619c6.437 0 10.69 0 15.928-5.247l8.778-8.774c5.237-5.244 5.237-9.683 5.237-16.402V107.23l-10.99-4.96 20.257-.002ZM169.542 191.262c.75 0 1.416.059 1.416.848 0 .85-1.16.706-2.007.706h-.965v-1.554h1.556Zm.652 2.459c.832-.027 1.665-.48 1.665-1.71 0-1.315-1.016-1.654-2.145-1.654h-2.63v6.248h.902v-2.884h1.16l1.598 2.884h1.033l-1.583-2.884Zm-.962 5.274c3.11 0 5.57-2.46 5.57-5.555 0-3.098-2.46-5.556-5.57-5.556-3.11 0-5.57 2.458-5.57 5.556 0 3.096 2.46 5.555 5.57 5.555Zm0-10.209c2.545 0 4.666 2.026 4.666 4.654 0 2.614-2.121 4.65-4.666 4.65-2.544 0-4.664-2.036-4.664-4.65 0-2.628 2.12-4.654 4.664-4.654Z"/></g></svg>